<?xml version="1.0" encoding="iso-8859-1"?>
<!-- Generator: Adobe Illustrator 19.0.0, SVG Export Plug-In . SVG Version: 6.00 Build 0)  -->
<svg version="1.1" id="Capa_1" xmlns="http://www.w3.org/2000/svg" xmlns:xlink="http://www.w3.org/1999/xlink" x="0px" y="0px"
	 viewBox="0 0 511.995 511.995" style="enable-background:new 0 0 511.995 511.995;" xml:space="preserve">
<g>
	<path style="fill:#FFE477;" d="M384.056,166.427l7.455-7.455c2.414-2.414,6.327-2.414,8.741,0l70.619,70.619
		c6.869,6.869,11.066,16.083,11.224,25.797c0.162,10.017-3.662,19.46-10.728,26.526l-70.28,70.281c-2.414,2.414-6.327,2.414-8.741,0
		l-7.455-7.455c-2.414-2.414-2.414-6.327,0-8.741l69.962-69.963c2.589-2.589,4.252-6.036,4.339-9.696
		c0.091-3.797-1.345-7.38-4.02-10.057l-71.115-71.114C381.642,172.755,381.642,168.842,384.056,166.427z"/>
	<path style="fill:#FFE477;" d="M29.899,256.608c-0.162-10.016,3.663-19.457,10.729-26.522l71.113-71.114
		c2.414-2.414,6.327-2.414,8.741,0l7.455,7.455c2.414,2.414,2.414,6.327,0,8.741l-70.797,70.798
		c-2.588,2.588-4.249,6.034-4.338,9.692c-0.092,3.797,1.344,7.383,4.021,10.06l70.28,70.281c2.414,2.414,2.414,6.327,0,8.741
		l-7.455,7.455c-2.414,2.414-6.327,2.414-8.741,0l-69.783-69.784C34.253,275.539,30.056,266.323,29.899,256.608z"/>
</g>
<g>
	<path style="fill:#FFD422;" d="M56.824,265.718c-2.676-2.676-4.112-6.261-4.021-10.06c0.089-3.659,1.75-7.104,4.338-9.692
		l70.797-70.797c2.414-2.414,2.414-6.327,0-8.741l-7.455-7.455c-2.414-2.414-6.327-2.414-8.741,0l-3.355,3.355l4.099,4.099
		c2.414,2.414,2.414,6.327,0,8.741l-70.797,70.798c-2.588,2.588-4.249,6.034-4.338,9.692c-0.092,3.797,1.344,7.383,4.021,10.06
		l70.28,70.281c2.414,2.414,2.414,6.327,0,8.741l-4.099,4.099l3.355,3.355c2.414,2.414,6.327,2.414,8.741,0l7.455-7.455
		c2.414-2.414,2.414-6.327,0-8.741L56.824,265.718z"/>
	<path style="fill:#FFD422;" d="M455.171,265.718c2.676-2.676,4.112-6.261,4.021-10.06c-0.089-3.659-1.75-7.104-4.338-9.692
		l-70.797-70.797c-2.414-2.414-2.414-6.327,0-8.741l7.455-7.455c2.414-2.414,6.327-2.414,8.741,0l3.355,3.355l-4.099,4.099
		c-2.414,2.414-2.414,6.327,0,8.741l70.797,70.797c2.588,2.588,4.249,6.034,4.338,9.692c0.092,3.797-1.344,7.383-4.021,10.06
		l-70.28,70.281c-2.414,2.414-2.414,6.327,0,8.741l4.099,4.099l-3.355,3.355c-2.414,2.414-6.327,2.414-8.741,0l-7.455-7.455
		c-2.414-2.414-2.414-6.327,0-8.741L455.171,265.718z"/>
</g>
<g>
	<circle style="fill:#004FAC;" cx="257.491" cy="16.797" r="16.797"/>
	<circle style="fill:#004FAC;" cx="254.504" cy="495.198" r="16.797"/>
</g>
<path style="fill:#FF5C5C;" d="M114.481,239.974l125.49-125.49c8.851-8.851,23.201-8.851,32.052,0l125.489,125.49
	c8.851,8.851,8.851,23.201,0,32.052l-125.49,125.488c-8.851,8.851-23.201,8.851-32.052,0L114.481,272.025
	C105.631,263.175,105.631,248.825,114.481,239.974z"/>
<path style="fill:#FF3333;" d="M312.986,257.497l51.024-51.025l-91.987-91.987c-8.851-8.85-23.201-8.85-32.052,0l-90.49,90.491
	l49.528,49.528l-51.025,51.025l91.988,91.988c8.851,8.851,23.201,8.851,32.052,0l90.491-90.491L312.986,257.497z"/>
<path style="fill:#00479B;" d="M263.282,154.331l94.385,94.384c4.023,4.023,4.023,10.546,0,14.569l-94.384,94.385
	c-4.023,4.023-10.546,4.023-14.569,0l-94.385-94.385c-4.023-4.023-4.023-10.546,0-14.569l94.384-94.384
	C252.736,150.308,259.258,150.308,263.282,154.331z"/>
<path style="fill:#003068;" d="M312.986,257.497l26.73-26.731l-76.435-76.434c-4.023-4.023-10.546-4.023-14.569,0l-74.937,74.937
	l25.234,25.234l-26.731,26.731l76.435,76.435c4.023,4.023,10.546,4.023,14.569,0l74.937-74.938L312.986,257.497z"/>
<path style="fill:#FFE477;" d="M280.169,62.631c-12.523-12.523-32.827-12.523-45.349,0l-69.314,69.314
	c-12.523,12.523-12.523,32.827,0,45.349l69.314,69.314c12.523,12.523,32.826,12.523,45.349,0l69.314-69.314
	c12.523-12.523,12.523-32.827,0-45.349L280.169,62.631z"/>
<path style="fill:#FFD422;" d="M222.813,131.945l63.335-63.334l-5.979-5.979c-12.523-12.523-32.827-12.523-45.35,0l-69.314,69.314
	c-12.523,12.523-12.523,32.827,0,45.35l69.314,69.314c12.523,12.523,32.827,12.523,45.35,0l5.979-5.979l-63.335-63.334
	C210.29,164.771,210.29,144.467,222.813,131.945z"/>
<path style="fill:#FF5C5C;" d="M234.82,62.631l-25.343,25.343l33.442,33.442c8.05,8.05,21.102,8.05,29.153,0l33.442-33.442
	L280.17,62.631C267.646,50.108,247.343,50.108,234.82,62.631z"/>
<path style="fill:#FF3333;" d="M280.169,62.631c-12.523-12.523-32.827-12.523-45.35,0l-25.343,25.343l28.653,28.653l48.019-48.018
	L280.169,62.631z"/>
<path style="fill:#FFE477;" d="M277.175,265.392c-12.523-12.523-32.826-12.523-45.349,0l-69.315,69.314
	c-12.523,12.523-12.523,32.827,0,45.349l69.314,69.314c12.523,12.523,32.827,12.523,45.349,0l69.314-69.314
	c12.523-12.523,12.523-32.827,0-45.349L277.175,265.392z"/>
<path style="fill:#57E5D0;" d="M280.169,246.608l69.314-69.314c12.523-12.523,12.523-32.827,0-45.349l-15.316-15.316l-62.096,62.096
	c-8.05,8.05-21.102,8.05-29.153,0l-62.096-62.096l-15.316,15.316c-12.523,12.523-12.523,32.827,0,45.349l69.314,69.314
	C247.343,259.131,267.646,259.131,280.169,246.608z"/>
<path style="fill:#28C6AF;" d="M213.818,149.625l-32.996-32.996l-15.316,15.316c-12.523,12.523-12.523,32.827,0,45.349
	l69.314,69.314c12.523,12.523,32.827,12.523,45.35,0l5.979-5.979l-63.336-63.333C215.277,169.757,212.284,159.405,213.818,149.625z"
	/>
<path style="fill:#FFD422;" d="M219.82,380.055l63.334,63.335l-5.979,5.979c-12.523,12.523-32.827,12.523-45.349,0l-69.314-69.314
	c-12.523-12.523-12.523-32.827,0-45.35l69.314-69.314c12.523-12.523,32.826-12.523,45.349,0l5.979,5.979l-63.334,63.335
	C207.297,347.229,207.297,367.533,219.82,380.055z"/>
<path style="fill:#57E5D0;" d="M277.175,265.392l69.314,69.314c12.523,12.523,12.523,32.827,0,45.349l-15.316,15.316l-62.096-62.096
	c-8.051-8.05-21.102-8.05-29.153,0l-62.096,62.096l-15.316-15.316c-12.523-12.523-12.523-32.827,0-45.349l69.314-69.314
	C244.349,252.869,264.652,252.869,277.175,265.392z"/>
<path style="fill:#28C6AF;" d="M210.824,362.375l-32.996,32.996l-15.316-15.316c-12.523-12.523-12.523-32.827,0-45.349
	l69.314-69.314c12.523-12.523,32.827-12.523,45.35,0l5.979,5.979l-63.335,63.333C212.284,342.242,209.29,352.595,210.824,362.375z"
	/>
<path style="fill:#FF5C5C;" d="M231.826,449.369l-25.343-25.344l33.442-33.442c8.05-8.05,21.102-8.05,29.153,0l33.442,33.442
	l-25.344,25.344C264.652,461.892,244.349,461.892,231.826,449.369z"/>
<path style="fill:#FF3333;" d="M277.175,449.369c-12.523,12.523-32.827,12.523-45.35,0l-25.343-25.344l28.653-28.653l48.018,48.018
	L277.175,449.369z"/>
<g>
</g>
<g>
</g>
<g>
</g>
<g>
</g>
<g>
</g>
<g>
</g>
<g>
</g>
<g>
</g>
<g>
</g>
<g>
</g>
<g>
</g>
<g>
</g>
<g>
</g>
<g>
</g>
<g>
</g>
</svg>
