<?xml version="1.0" encoding="iso-8859-1"?>
<!-- Generator: Adobe Illustrator 19.0.0, SVG Export Plug-In . SVG Version: 6.00 Build 0)  -->
<svg version="1.1" id="Capa_1" xmlns="http://www.w3.org/2000/svg" xmlns:xlink="http://www.w3.org/1999/xlink" x="0px" y="0px"
	 viewBox="0 0 512.001 512.001" style="enable-background:new 0 0 512.001 512.001;" xml:space="preserve">
<g>
	<path style="fill:#FFE477;" d="M380.308,169.052l7.237-7.237c2.343-2.343,6.142-2.343,8.485,0l68.55,68.55
		c6.668,6.668,10.742,15.612,10.895,25.041c0.157,9.724-3.555,18.89-10.414,25.749l-68.221,68.222c-2.343,2.343-6.142,2.343-8.485,0
		l-7.237-7.237c-2.343-2.343-2.343-6.142,0-8.485l67.912-67.913c2.513-2.513,4.127-5.859,4.212-9.412
		c0.088-3.686-1.306-7.164-3.902-9.762l-69.032-69.031C377.965,175.194,377.965,171.395,380.308,169.052z"/>
	<path style="fill:#FFE477;" d="M36.526,256.591c-0.157-9.723,3.556-18.887,10.415-25.745l69.03-69.031
		c2.343-2.343,6.142-2.343,8.485,0l7.237,7.237c2.343,2.343,2.343,6.142,0,8.485L62.97,246.26c-2.512,2.512-4.126,5.857-4.211,9.408
		c-0.089,3.686,1.305,7.167,3.903,9.765l68.221,68.222c2.343,2.343,2.343,6.142,0,8.485l-7.237,7.237
		c-2.343,2.343-6.142,2.343-8.485,0l-67.739-67.74C40.752,274.967,36.678,266.022,36.526,256.591z"/>
</g>
<g>
	<path style="fill:#FFD422;" d="M62.662,265.433c-2.598-2.598-3.992-6.078-3.903-9.765c0.086-3.552,1.699-6.896,4.211-9.408
		l68.723-68.723c2.343-2.343,2.343-6.142,0-8.485l-7.237-7.237c-2.343-2.343-6.142-2.343-8.485,0l-3.257,3.257l3.979,3.979
		c2.343,2.343,2.343,6.142,0,8.485L47.97,246.26c-2.512,2.512-4.125,5.857-4.211,9.408c-0.089,3.686,1.305,7.167,3.903,9.765
		l68.221,68.222c2.343,2.343,2.343,6.142,0,8.485l-3.979,3.979l3.257,3.257c2.343,2.343,6.142,2.343,8.485,0l7.237-7.237
		c2.343-2.343,2.343-6.142,0-8.485L62.662,265.433z"/>
	<path style="fill:#FFD422;" d="M449.339,265.433c2.598-2.598,3.992-6.078,3.903-9.765c-0.086-3.552-1.699-6.896-4.211-9.408
		l-68.723-68.723c-2.343-2.343-2.343-6.142,0-8.485l7.237-7.237c2.343-2.343,6.142-2.343,8.485,0l3.257,3.257l-3.979,3.979
		c-2.343,2.343-2.343,6.142,0,8.485l68.723,68.723c2.512,2.512,4.125,5.857,4.211,9.408c0.089,3.686-1.305,7.167-3.903,9.765
		l-68.221,68.222c-2.343,2.343-2.343,6.142,0,8.485l3.979,3.979l-3.257,3.257c-2.343,2.343-6.142,2.343-8.485,0l-7.237-7.237
		c-2.343-2.343-2.343-6.142,0-8.485L449.339,265.433z"/>
</g>
<g>
	<circle style="fill:#004FAC;" cx="257.45" cy="23.806" r="16.305"/>
	<circle style="fill:#004FAC;" cx="254.55" cy="488.19" r="16.305"/>
</g>
<path style="fill:#FF5C5C;" d="M118.631,240.444l121.813-121.813c8.592-8.592,22.521-8.592,31.113,0L393.37,240.444
	c8.592,8.592,8.592,22.521,0,31.113L271.557,393.37c-8.592,8.592-22.521,8.592-31.113,0L118.631,271.557
	C110.039,262.965,110.039,249.035,118.631,240.444z"/>
<path style="fill:#FF3333;" d="M311.32,257.453l49.529-49.53l-89.292-89.292c-8.592-8.591-22.521-8.591-31.113,0l-87.839,87.84
	l48.077,48.077l-49.53,49.53l89.293,89.293c8.592,8.592,22.521,8.592,31.113,0l87.84-87.84L311.32,257.453z"/>
<path style="fill:#00479B;" d="M263.071,157.31l91.62,91.619c3.905,3.905,3.905,10.237,0,14.142l-91.619,91.62
	c-3.905,3.905-10.237,3.905-14.142,0l-91.62-91.62c-3.905-3.905-3.905-10.237,0-14.142l91.619-91.619
	C252.834,153.405,259.166,153.405,263.071,157.31z"/>
<path style="fill:#003068;" d="M311.32,257.453l25.947-25.948l-74.196-74.195c-3.905-3.905-10.237-3.905-14.142,0l-72.742,72.742
	l24.495,24.495l-25.948,25.948l74.196,74.196c3.905,3.905,10.237,3.905,14.142,0l72.742-72.743L311.32,257.453z"/>
<path style="fill:#FFE477;" d="M279.464,68.296c-12.156-12.156-31.865-12.156-44.02,0L168.16,135.58
	c-12.156,12.156-12.156,31.865,0,44.02l67.283,67.283c12.156,12.156,31.864,12.156,44.02,0l67.283-67.283
	c12.156-12.156,12.156-31.865,0-44.02L279.464,68.296z"/>
<path style="fill:#FFD422;" d="M223.789,135.58l61.479-61.48l-5.804-5.804c-12.156-12.156-31.865-12.156-44.02,0L168.16,135.58
	c-12.156,12.156-12.156,31.865,0,44.021l67.283,67.283c12.156,12.156,31.864,12.156,44.02,0l5.804-5.804l-61.478-61.48
	C211.633,167.444,211.633,147.736,223.789,135.58z"/>
<path style="fill:#FF5C5C;" d="M235.443,68.296l-24.601,24.601l32.462,32.462c7.814,7.814,20.484,7.814,28.299,0l32.462-32.462
	l-24.601-24.601C267.308,56.14,247.599,56.14,235.443,68.296z"/>
<path style="fill:#FF3333;" d="M279.464,68.296c-12.156-12.156-31.865-12.156-44.021,0l-24.601,24.601l27.814,27.814L285.267,74.1
	L279.464,68.296z"/>
<path style="fill:#FFE477;" d="M276.558,265.117c-12.156-12.156-31.864-12.156-44.02,0L165.254,332.4
	c-12.156,12.156-12.156,31.865,0,44.02l67.283,67.283c12.156,12.156,31.865,12.156,44.02,0l67.283-67.283
	c12.156-12.156,12.156-31.865,0-44.02L276.558,265.117z"/>
<path style="fill:#57E5D0;" d="M279.464,246.883l67.283-67.283c12.156-12.156,12.156-31.865,0-44.02l-14.867-14.867l-60.277,60.277
	c-7.814,7.814-20.484,7.814-28.299,0l-60.277-60.277L168.16,135.58c-12.156,12.156-12.156,31.865,0,44.02l67.283,67.283
	C247.599,259.039,267.308,259.039,279.464,246.883z"/>
<path style="fill:#28C6AF;" d="M215.056,152.741l-32.029-32.029L168.16,135.58c-12.156,12.156-12.156,31.865,0,44.02l67.283,67.283
	c12.156,12.156,31.865,12.156,44.021,0l5.804-5.804L223.789,179.6C216.473,172.285,213.567,162.235,215.056,152.741z"/>
<path style="fill:#FFD422;" d="M220.883,376.421l61.479,61.479l-5.804,5.804c-12.156,12.156-31.865,12.156-44.02,0l-67.283-67.283
	c-12.156-12.156-12.156-31.865,0-44.021l67.283-67.283c12.156-12.156,31.864-12.156,44.02,0l5.804,5.804L220.883,332.4
	C208.727,344.556,208.727,364.265,220.883,376.421z"/>
<path style="fill:#57E5D0;" d="M276.558,265.117l67.283,67.283c12.156,12.156,12.156,31.865,0,44.02l-14.867,14.867l-60.277-60.277
	c-7.815-7.814-20.484-7.814-28.299,0l-60.277,60.277l-14.867-14.867c-12.156-12.156-12.156-31.865,0-44.02l67.283-67.283
	C244.693,252.961,264.402,252.961,276.558,265.117z"/>
<path style="fill:#28C6AF;" d="M212.15,359.259l-32.029,32.029l-14.867-14.867c-12.156-12.156-12.156-31.865,0-44.02l67.283-67.283
	c12.156-12.156,31.865-12.156,44.021,0l5.804,5.804l-61.479,61.479C213.567,339.716,210.661,349.766,212.15,359.259z"/>
<path style="fill:#FF5C5C;" d="M232.537,443.704l-24.601-24.601l32.462-32.462c7.814-7.814,20.484-7.814,28.299,0l32.462,32.462
	l-24.601,24.601C264.402,455.86,244.693,455.86,232.537,443.704z"/>
<path style="fill:#FF3333;" d="M276.558,443.704c-12.156,12.156-31.865,12.156-44.021,0l-24.601-24.601l27.814-27.814l46.611,46.611
	L276.558,443.704z"/>
<path d="M469.883,225.062l-68.549-68.548c-2.55-2.552-5.94-3.956-9.547-3.956s-6.998,1.404-9.547,3.954l-7.234,7.235
	c-2.552,2.55-3.956,5.94-3.956,9.548c0,3.606,1.404,6.997,3.954,9.546l69.031,69.031c1.157,1.156,1.748,2.636,1.708,4.278
	c-0.035,1.479-0.771,3.042-2.018,4.288l-67.912,67.913c-5.263,5.263-5.263,13.827,0,19.093l7.238,7.237
	c2.55,2.549,5.939,3.952,9.545,3.952s6.996-1.404,9.546-3.953l68.222-68.223c8.322-8.323,12.8-19.395,12.608-31.173
	C482.791,244.054,478.143,233.32,469.883,225.062z M459.757,275.852l-67.161,67.161l-5.114-5.115l66.853-66.853
	c4.002-4.004,6.276-9.166,6.405-14.534c0.139-5.761-2.026-11.175-6.097-15.246l-67.971-67.971l5.115-5.114l67.489,67.489
	c5.491,5.49,8.58,12.543,8.698,19.859C468.1,263.209,465.181,270.428,459.757,275.852z"/>
<path d="M325.209,303.161l34.786-34.786c6.823-6.824,6.823-17.926,0-24.75l-33.333-33.333l12.974-12.975l48.431,48.431
	c2.738,2.738,4.247,6.379,4.247,10.252s-1.509,7.515-4.248,10.253L348.321,306c-2.929,2.929-2.929,7.677,0,10.606
	c1.465,1.464,6.846,3.573,10.607,0l39.745-39.746c5.571-5.572,8.641-12.98,8.641-20.86s-3.069-15.288-8.641-20.859l-48.431-48.431
	c0,0,13.121-9.864,13.121-29.12c0-10.317-4.019-20.018-11.313-27.313l-67.283-67.284c-7.296-7.295-16.996-11.313-27.313-11.313
	s-20.018,4.018-27.313,11.313l-67.284,67.284c-15.061,15.061-15.061,39.566,0,54.627l23.936,23.936l-34.786,34.786
	c-6.823,6.824-6.823,17.926,0,24.75l33.333,33.333l-12.975,12.975l-48.43-48.43c-2.739-2.738-4.247-6.38-4.247-10.253
	s1.508-7.514,4.247-10.252l40.255-40.256c2.929-2.93,2.929-7.678,0-10.607c-2.93-2.928-7.678-2.928-10.607,0l-40.254,40.256
	c-5.572,5.571-8.641,12.979-8.641,20.859c0,7.88,3.068,15.288,8.64,20.86l48.43,48.43c0,0-13.12,10.056-13.12,29.121
	c0,10.317,4.018,20.018,11.313,27.313l67.283,67.282c7.296,7.296,16.996,11.314,27.313,11.314c10.318,0,20.019-4.018,27.314-11.313
	l67.283-67.284c15.06-15.061,15.06-39.565,0-54.627L325.209,303.161z M349.387,254.232c0.976,0.975,0.976,2.561,0,3.535
	l-34.786,34.786l-32.74-32.74c-0.975-0.975-1.995-1.886-3.051-2.742c2.119-1.412,4.115-3.043,5.956-4.884l31.287-31.288
	L349.387,254.232z M321.272,120.712l-54.973,54.974c-2.362,2.363-5.504,3.664-8.846,3.664s-6.483-1.301-8.846-3.664l-54.973-54.974
	l17.207-17.207L238,130.662c5.364,5.363,12.407,8.044,19.453,8.044c7.044,0,14.09-2.682,19.453-8.044l27.158-27.157L321.272,120.712
	z M240.747,73.6c4.462-4.463,10.395-6.92,16.706-6.92s12.244,2.457,16.706,6.92l19.298,19.298l-27.158,27.157
	c-4.876,4.878-12.813,4.88-17.692,0l-27.158-27.157L240.747,73.6z M173.463,140.884l9.564-9.564L238,186.293
	c5.196,5.195,12.104,8.057,19.453,8.057s14.257-2.861,19.453-8.057l54.973-54.974l9.564,9.564c4.462,4.462,6.92,10.396,6.92,16.706
	s-2.458,12.244-6.921,16.706L274.16,241.58c-4.462,4.463-10.395,6.92-16.706,6.92s-12.244-2.457-16.706-6.92l-67.284-67.284
	C164.251,165.084,164.251,150.096,173.463,140.884z M162.614,257.768c-0.976-0.975-0.976-2.561,0-3.535l34.786-34.786l32.741,32.741
	c0.974,0.974,1.995,1.886,3.051,2.741c-2.119,1.412-4.115,3.043-5.957,4.885l-31.287,31.287L162.614,257.768z M190.729,391.288
	l54.973-54.973c4.877-4.879,12.814-4.879,17.691,0l54.973,54.973l-17.208,17.208L274,381.338c-10.727-10.725-28.18-10.725-38.906,0
	l-27.158,27.158L190.729,391.288z M271.254,438.4c-4.462,4.463-10.396,6.921-16.707,6.921s-12.244-2.458-16.706-6.921
	l-19.297-19.297l27.158-27.158c4.877-4.879,12.814-4.879,17.691,0l27.158,27.158L271.254,438.4z M338.538,371.117l-9.564,9.564
	L274,325.708c-10.727-10.725-28.18-10.725-38.906,0l-54.973,54.973l-9.563-9.563c-4.463-4.462-6.921-10.396-6.921-16.706
	c0-6.312,2.458-12.245,6.921-16.707l67.283-67.284c4.462-4.462,10.396-6.92,16.706-6.92c6.312,0,12.245,2.458,16.707,6.921
	l67.283,67.282C347.749,346.916,347.749,361.905,338.538,371.117z"/>
<path d="M257.454,47.611c13.126,0,23.805-10.679,23.805-23.806S270.58,0,257.454,0c-13.127,0-23.806,10.679-23.806,23.806
	S244.327,47.611,257.454,47.611z M257.454,15c4.854,0,8.805,3.95,8.805,8.806s-3.95,8.806-8.805,8.806
	c-4.855,0-8.806-3.95-8.806-8.806S252.598,15,257.454,15z"/>
<path d="M254.547,464.39c-13.126,0-23.805,10.679-23.805,23.806c0,13.126,10.679,23.805,23.805,23.805
	c13.127,0,23.806-10.679,23.806-23.805C278.353,475.068,267.674,464.39,254.547,464.39z M254.547,497
	c-4.854,0-8.805-3.95-8.805-8.805c0-4.855,3.95-8.806,8.805-8.806c4.855,0,8.806,3.95,8.806,8.806
	C263.353,493.05,259.403,497,254.547,497z"/>
<path d="M67.966,260.129c-1.158-1.157-1.749-2.638-1.709-4.279c0.035-1.479,0.771-3.041,2.017-4.286l68.721-68.722
	c2.552-2.55,3.956-5.94,3.956-9.547s-1.404-6.998-3.954-9.547l-7.235-7.234c-2.55-2.551-5.94-3.956-9.548-3.956
	c-3.606,0-6.997,1.405-9.546,3.954l-69.028,69.03c-8.322,8.321-12.802,19.391-12.612,31.17c0.182,11.231,4.831,21.967,13.092,30.229
	l36.143,36.143c4.739,3.763,9.143,1.465,10.606,0.001c2.93-2.929,2.93-7.678,0.001-10.606l-36.143-36.145
	c-5.493-5.492-8.583-12.547-8.701-19.862c-0.123-7.682,2.796-14.898,8.221-20.321l67.969-67.97l5.114,5.115l-67.663,67.662
	c-4,4.002-6.274,9.162-6.404,14.53c-0.139,5.762,2.027,11.178,6.098,15.248l67.16,67.162l-5.115,5.115l-15.91-15.911
	c-2.93-2.928-7.678-2.928-10.607,0c-2.929,2.93-2.929,7.678,0,10.607l16.972,16.972c2.632,2.631,6.088,3.947,9.546,3.946
	c3.456,0,6.914-1.315,9.547-3.946l7.237-7.238c5.262-5.264,5.261-13.828-0.001-19.091L67.966,260.129z"/>
<g>
</g>
<g>
</g>
<g>
</g>
<g>
</g>
<g>
</g>
<g>
</g>
<g>
</g>
<g>
</g>
<g>
</g>
<g>
</g>
<g>
</g>
<g>
</g>
<g>
</g>
<g>
</g>
<g>
</g>
</svg>
